<svg width="24" height="24" viewBox="0 0 24 24" fill="none" xmlns="http://www.w3.org/2000/svg">
<path d="M21.907 9.64103C21.9814 9.47263 22.0123 9.28825 21.9969 9.1048C21.9815 8.92136 21.9204 8.7447 21.819 8.59103C21.549 8.07203 19.679 7.94403 19.763 8.55803C19.797 8.80603 19.863 8.97403 19.557 9.00403C19.5038 8.90179 19.458 8.79585 19.42 8.68703L18.89 7.06003C18.6717 6.41364 18.2125 5.87636 17.608 5.56003L17.235 5.36003C16.6704 5.05842 16.0402 4.90044 15.4 4.90003H8.60501C7.96444 4.89919 7.33352 5.05614 6.76801 5.35703L6.39601 5.55703C5.79152 5.87336 5.33232 6.41064 5.11401 7.05703L4.58001 8.68203C4.54239 8.79116 4.49693 8.89744 4.44401 9.00003C4.13601 8.97003 4.20301 8.80003 4.23701 8.55403C4.32101 7.94003 2.45101 8.06803 2.18101 8.58703C2.07965 8.7407 2.01849 8.91736 2.00311 9.10081C1.98774 9.28425 2.01865 9.46863 2.09301 9.63703C2.34414 9.80192 2.62691 9.91261 2.92324 9.96203C3.21958 10.0114 3.52296 9.9985 3.81401 9.92403L2.73501 11.241C2.36104 11.6344 2.15389 12.1573 2.15701 12.7L2.18601 18.064C2.19824 18.3485 2.322 18.6167 2.53048 18.8106C2.73897 19.0044 3.01543 19.1084 3.30001 19.1H4.94401C5.07514 19.1044 5.20273 19.057 5.29926 18.9682C5.39579 18.8793 5.45352 18.7561 5.46001 18.625V18.604L5.43201 17.4H18.574L18.545 18.61C18.545 18.7426 18.5977 18.8698 18.6915 18.9636C18.7852 19.0573 18.9124 19.11 19.045 19.11H20.709C20.9946 19.119 21.2722 19.0147 21.4812 18.8199C21.6902 18.6251 21.8138 18.3555 21.825 18.07L21.855 12.706C21.8581 12.1633 21.651 11.6404 21.277 11.247L20.186 9.92303C20.4767 9.99823 20.7799 10.012 21.0762 9.96344C21.3726 9.91488 21.6555 9.80507 21.907 9.64103ZM5.38801 8.90003C5.41672 8.05844 5.77805 7.26259 6.39276 6.68707C7.00747 6.11154 7.82536 5.80332 8.66701 5.83003H15.333C16.1758 5.8036 16.9946 6.11267 17.6098 6.68937C18.2249 7.26607 18.5861 8.06329 18.614 8.90603V9.35603C18.6137 9.38901 18.6005 9.42054 18.577 9.44377C18.5536 9.467 18.522 9.48003 18.489 9.48003H5.51201C5.47913 9.48003 5.44759 9.46696 5.42433 9.44371C5.40108 9.42045 5.38801 9.38891 5.38801 9.35603V8.90003ZM6.78101 12.929C6.75889 12.9635 6.72862 12.9921 6.69287 13.0121C6.65712 13.0322 6.61699 13.0431 6.57601 13.044H3.51601C3.38001 13.044 3.09801 12.982 3.09801 12.569L3.30501 11.5C3.37601 11.128 4.11101 11.149 4.43801 11.344L6.70001 12.591C6.7558 12.6259 6.79559 12.6814 6.81075 12.7454C6.82591 12.8094 6.81523 12.8768 6.78101 12.933V12.929ZM20.7 11.5L20.907 12.573C20.907 12.986 20.625 13.048 20.489 13.048H17.429C17.3758 13.0468 17.3244 13.0283 17.2825 12.9955C17.2406 12.9626 17.2105 12.9171 17.1965 12.8658C17.1826 12.8144 17.1856 12.7599 17.2052 12.7104C17.2247 12.6609 17.2597 12.619 17.305 12.591L19.571 11.344C19.889 11.149 20.624 11.126 20.7 11.5Z" fill="black"/>
</svg>
